:version 1.10
:name ASF
:units
  mass 1
  length 1
  angle deg
:documentation
  ASF file generated by Kaydara
:root
  axis xyz
  order  tx ty tz rx ry rz
  position 0 0 0
  orientation 0 0 0
:bonedata
  begin
    id 1
    name RightUpLegDummy
    direction -0.718183 -0.695806 0.00816078
    length 4.904
    axis 0 0 0 xyz
  end
  begin
    id 2
    name RightUpLeg
    direction 3.53989e-006 -0.995788 0.0916897
    length 17.4976
    axis -3.49089 -0.000906621 0.000287158 xyz
    dof rx ry rz
  end
  begin
    id 3
    name RightLeg
    direction 0.00371093 -0.995096 -0.0988418
    length 16.5821
    axis 3.68512 0.0193738 -0.131023 xyz
    dof rx ry rz
  end
  begin
    id 4
    name RightFoot
    direction 0.000791514 -0.46099 0.887405
    length 3.77069
    axis 4.84075e-005 -0.120479 -0.188788 xyz
    dof rx ry rz
  end
  begin
    id 5
    name RightToes
    direction 0.00124746 -0.014064 0.9999
    length 3.85082
    axis 0.00048216 0.542163 -0.142577 xyz
    dof rx ry rz
  end
  begin
    id 6
    name SpineDummy
    direction 8.3039e-015 1 4.57515e-016
    length 4.6813
    axis 0 0 0 xyz
  end
  begin
    id 7
    name Spine
    direction -4.63632e-008 0.999988 0.00495137
    length 10.1015
    axis -0.00138897 0.000121419 3.25764e-006 xyz
    dof rx ry rz
  end
  begin
    id 8
    name Spine1
    direction 0 0 0
    length 0
    axis -0.00138896 0.000121452 2.39764e-006 xyz
    dof rx ry rz
  end
  begin
    id 9
    name HEadDummy
    direction -3.91456e-008 0.999999 0.00127422
    length 3.43865
    axis -0.00138896 0.000121452 2.39764e-006 xyz
  end
  begin
    id 10
    name HEad
    direction -0.0222688 0.980941 0.193023
    length 5.12695
    axis -0.00138895 0.000121452 2.39764e-006 xyz
    dof rx ry rz
  end
  begin
    id 11
    name LeftShoulder1Dummy
    direction 0.998891 -0.0402508 -0.0244456
    length 3.5433
    axis -0.00138896 0.000121452 2.39764e-006 xyz
  end
  begin
    id 12
    name LeftShoulder1
    direction 0.99951 -0.000327743 0.0313091
    length 4.05031
    axis -0.00138896 0.000121452 2.39764e-006 xyz
    dof rx ry rz
  end
  begin
    id 13
    name LeftArm
    direction 0.998561 -0.00100054 -0.0536182
    length 10.3537
    axis -23.1894 0.134784 0.96751 xyz
    dof rx ry rz
  end
  begin
    id 14
    name LeftForeArm
    direction 0.998903 0.00866434 0.046012
    length 8.70632
    axis -9.91835 -0.06569 -0.177792 xyz
    dof rx ry rz
  end
  begin
    id 15
    name LeftHand
    direction 0.992938 -0.0411636 0.11126
    length 5.32135
    axis -0.00960227 -0.00340091 0.185174 xyz
    dof rx ry rz
  end
  begin
    id 16
    name RightShoulderDummy
    direction -0.998891 -0.0402509 -0.0244414
    length 3.5433
    axis -0.00138896 0.000121452 2.39764e-006 xyz
  end
  begin
    id 17
    name RightShoulder
    direction -0.99951 -0.000327827 0.0313133
    length 4.05031
    axis 0.215806 0.000203644 -0.00680151 xyz
    dof rx ry rz
  end
  begin
    id 18
    name RightArm
    direction -0.998573 -0.000999583 -0.053403
    length 10.3947
    axis -23.2009 -0.134239 -0.9641 xyz
    dof rx ry rz
  end
  begin
    id 19
    name RightForeArm
    direction -0.998898 0.00868026 0.0461306
    length 8.68355
    axis -9.92322 0.0658061 0.178869 xyz
    dof rx ry rz
  end
  begin
    id 20
    name RightHand
    direction -0.992843 -0.0414603 0.112003
    length 5.28593
    axis -0.00960634 0.00330671 -0.185226 xyz
    dof rx ry rz
  end
  begin
    id 21
    name LeftUpLegDummy
    direction 0.718183 -0.695806 0.00816078
    length 4.904
    axis 0 0 0 xyz
  end
  begin
    id 22
    name LeftUpLeg
    direction -6.8115e-006 -0.995793 0.0916336
    length 17.4976
    axis -3.48766 0.00143441 -0.000523914 xyz
    dof rx ry rz
  end
  begin
    id 23
    name LeftLeg
    direction -0.00601357 -0.995091 -0.0987824
    length 16.5821
    axis 3.68177 -0.00654038 -0.00028478 xyz
    dof rx ry rz
  end
  begin
    id 24
    name LeftFoot
    direction -0.00417578 -0.460984 0.887399
    length 3.77069
    axis 1.87232e-006 4.66002e-005 -8.1837e-006 xyz
    dof rx ry rz
  end
  begin
    id 25
    name LeftToes
    direction 0.00818058 -0.00485161 0.999955
    length 3.85048
    axis 1.06246e-005 4.65855e-005 -8.18502e-006 xyz
    dof rx ry rz
  end
:hierarchy
  begin
    root RightUpLegDummy SpineDummy LeftUpLegDummy
    RightUpLegDummy RightUpLeg
    RightUpLeg RightLeg
    RightLeg RightFoot
    RightFoot RightToes
    SpineDummy Spine
    Spine Spine1
    Spine1 HEadDummy LeftShoulder1Dummy RightShoulderDummy
    HEadDummy HEad
    LeftShoulder1Dummy LeftShoulder1
    LeftShoulder1 LeftArm
    LeftArm LeftForeArm
    LeftForeArm LeftHand
    RightShoulderDummy RightShoulder
    RightShoulder RightArm
    RightArm RightForeArm
    RightForeArm RightHand
    LeftUpLegDummy LeftUpLeg
    LeftUpLeg LeftLeg
    LeftLeg LeftFoot
    LeftFoot LeftToes
  end

:SAMPLES-PER-SECOND 30
:FRAME-RANGE 1-663
:FULLY-SPECIFIED
:DEGREES
1
root  -90.0945 37.9917 104.082 177.091 79.6466 174.289
RightUpLeg  -6.92434 -5.46786 -9.14062
RightLeg  13.3967 1.152 -0.227214
RightFoot  -7.52064 -0.32661 8.24197
RightToes  -3.4386e-010 1.2921e-014 -6.02303e-014
Spine  -6.42238 -0.267516 0.603251
Spine1  7.06805 -0.167412 -0.938236
HEad  20.2374 -20.6874 0.248839
LeftShoulder1  1.55198 -2.45664 -20.7778
LeftArm  -5.39831 5.97536 -51.3465
LeftForeArm  34.0013 5.33806 -11.5682
LeftHand  -0.0192587 5.68874 1.60341
RightShoulder  0.399677 -2.13361 27.6217
RightArm  -23.9843 2.33476 47.8454
RightForeArm  65.4594 -5.58894 4.18913
RightHand  0.201957 -6.84079 -17.3735
LeftUpLeg  -11.4928 -4.57844 4.66318
LeftLeg  15.6736 2.36774 2.00018
LeftFoot  -7.20867 0.218497 -4.85663
LeftToes  -7.12384e-010 -7.51861e-011 -8.34901e-011
2
root  -90.1064 38.0516 103.582 176.941 80.8936 173.711
RightUpLeg  -7.31264 -4.00551 -9.24045
RightLeg  12.7787 -1.21577 -1.08992
RightFoot  -6.70733 -0.423468 9.31567
RightToes  -3.4386e-010 1.2921e-014 -6.02303e-014
Spine  -6.99112 -1.52862 1.21071
Spine1  7.63172 -1.24416 -2.21211
HEad  19.4584 -17.1535 0.59008
LeftShoulder1  0.653971 0.948526 -21.6267
LeftArm  -3.89903 5.27061 -50.3922
LeftForeArm  33.3145 4.39206 -12.0524
LeftHand  -0.0225711 5.92841 1.68291
RightShoulder  1.32015 0.833826 25.7956
RightArm  -27.0009 2.2821 50.9561
RightForeArm  68.1095 -5.20822 2.50088
RightHand  0.215225 -6.90911 -17.5887
LeftUpLeg  -11.3235 -2.85722 3.71654
LeftLeg  15.1229 2.01976 2.18852
LeftFoot  -7.28607 0.195916 -4.29869
LeftToes  -7.12384e-010 -7.51861e-011 -8.34901e-011
3
root  -90.1281 38.1565 103.169 179.63 81.9182 176.187
RightUpLeg  -7.91011 -3.12668 -8.26295
RightLeg  13.5618 -5.74975 -2.27043
RightFoot  -6.50075 -0.344381 7.09061
RightToes  -3.4386e-010 1.2921e-014 -6.02303e-014
Spine  -6.89512 -1.08479 1.4975
Spine1  7.37925 -0.537179 -3.17946
HEad  19.1236 -17.1609 1.8899
LeftShoulder1  1.0274 -0.703612 -19.3661
LeftArm  -4.78629 5.43935 -51.6532
LeftForeArm  33.6979 4.72803 -11.7483
LeftHand  -0.025651 5.50735 2.07804
RightShoulder  0.97573 -0.459416 28.1963
RightArm  -26.4684 2.89229 50.05
RightForeArm  69.0352 -5.21277 2.73904
RightHand  0.260036 -7.21144 -17.5537
LeftUpLeg  -11.0042 -1.74926 3.48724
LeftLeg  14.4067 2.02997 2.20617
LeftFoot  -7.09324 0.175757 -3.59096
LeftToes  -7.12384e-010 -7.51861e-011 -8.34901e-011
4
root  -90.1315 38.2093 102.859 -176.352 82.8344 -179.861
RightUpLeg  -8.15847 -4.20049 -6.7174
RightLeg  14.7375 -7.11002 -2.43537
RightFoot  -7.85606 -0.258129 6.71881
RightToes  -3.4386e-010 1.2921e-014 -6.02303e-014
Spine  -7.07482 -1.56844 0.634266
Spine1  7.78908 -1.39941 -1.60554
HEad  18.4899 -15.1393 1.26627
LeftShoulder1  0.759621 0.496804 -20.8809
LeftArm  -3.28326 4.64046 -50.2767
LeftForeArm  33.6915 4.00845 -12.2402
LeftHand  -0.026693 5.4061 2.28328
RightShoulder  1.38249 0.949902 26.4258
RightArm  -28.3481 2.55558 52.3075
RightForeArm  70.5994 -4.96521 1.6288
RightHand  0.251757 -7.15466 -17.5677
LeftUpLeg  -10.8871 -1.01416 3.5524
LeftLeg  14.3816 2.22789 2.29478
LeftFoot  -7.22082 0.158641 -3.20512
LeftToes  -7.12384e-010 -7.51861e-011 -8.34901e-011
5
root  -90.1027 38.2473 102.622 -172.002 83.6659 -175.383
RightUpLeg  -7.95963 -6.34925 -4.82124
RightLeg  16.2035 -6.01356 -2.14396
RightFoot  -10.1294 -0.146872 7.36212
RightToes  -3.4386e-010 1.2921e-014 -6.02303e-014
Spine  -7.43159 -1.63567 0.241782
Spine1  8.16508 -1.57383 -1.22729
HEad  18.43 -13.9208 1.18667
LeftShoulder1  0.749955 0.546723 -21.029
LeftArm  -2.7007 3.96827 -49.6735
LeftForeArm  34.1579 4.01103 -12.4255
LeftHand  -0.0319254 5.49919 2.12563
RightShoulder  1.48666 1.30311 26.2032
RightArm  -29.192 2.13817 53.4866
RightForeArm  71.0781 -4.86822 1.16687
RightHand  0.231857 -7.0137 -17.6481
LeftUpLeg  -10.5998 -0.316912 3.66737
LeftLeg  14.4896 2.39955 2.39694
LeftFoot  -7.37693 0.144213 -2.88742
LeftToes  -7.12384e-010 -7.51861e-011 -8.34901e-011
6
root  -90.0459 38.2731 102.433 -169.643 84.4668 -172.921
RightUpLeg  -7.42077 -8.30841 -3.22935
RightLeg  17.2807 -4.39329 -1.73721
RightFoot  -11.7071 -0.0500532 9.26058
RightToes  -3.4386e-010 1.2921e-014 -6.02303e-014
Spine  -7.80108 -1.51011 -0.124153
Spine1  8.379 -1.41893 -1.33665
HEad  18.399 -12.9208 1.4862
LeftShoulder1  0.794016 0.338804 -20.5812
LeftArm  -2.51042 3.53124 -49.4223
LeftForeArm  34.1485 3.89674 -12.4743
LeftHand  -0.0357425 5.47984 1.88919
RightShoulder  1.42056 1.05015 26.5632
RightArm  -28.9736 1.63122 54.0828
RightForeArm  70.8015 -4.91397 1.37269
RightHand  0.248999 -7.12797 -17.6429
LeftUpLeg  -10.2133 0.238083 3.49894
LeftLeg  14.4469 2.67926 2.55483
LeftFoot  -7.50973 0.135408 -2.70047
LeftToes  -7.12384e-010 -7.51861e-011 -8.34901e-011
7
root  -89.9586 38.2979 102.276 -169.68 85.3612 -172.718
RightUpLeg  -6.21976 -9.47687 -2.15435
RightLeg  17.3746 -3.58215 -1.46268
RightFoot  -12.6264 0.0333767 10.6133
RightToes  -3.4386e-010 1.2921e-014 -6.02303e-014
Spine  -8.13823 -0.985857 0.490881
Spine1  8.43816 -0.428108 -3.3518
HEad  18.437 -12.2742 2.32756
LeftShoulder1  1.05203 -0.876209 -18.8622
LeftArm  -3.50579 3.77691 -49.728
LeftForeArm  34.8096 3.64564 -12.0531
LeftHand  -0.0367623 5.47084 1.94572
RightShoulder  1.07342 -0.214317 28.6776
RightArm  -27.7981 1.2147 53.4223
RightForeArm  70.235 -5.06475 2.13455
RightHand  0.217531 -6.94308 -17.4011
LeftUpLeg  -9.43925 1.2582 3.1448
LeftLeg  14.048 2.61781 2.51482
LeftFoot  -7.59196 0.118508 -2.22804
LeftToes  -7.12384e-010 -7.51861e-011 -8.34901e-011
8
root  -89.8332 38.329 102.134 -174.383 86.538 -177.151
RightUpLeg  -4.67421 -10.1172 -2.86388
RightLeg  16.3077 0.774692 0.0867591
RightFoot  -11.7921 -0.0333231 11.9207
RightToes  -3.4386e-010 1.2921e-014 -6.02303e-014
Spine  -8.8516 -0.873542 0.356427
Spine1  9.04772 -0.289001 -3.45677
HEad  18.3701 -9.64316 1.59283
LeftShoulder1  0.885393 -0.0835779 -19.8982
LeftArm  -2.82192 2.92984 -48.5381
LeftForeArm  34.6267 3.53509 -12.2848
LeftHand  -0.0341352 5.29452 2.08065
RightShoulder  1.22992 0.335425 27.7381
RightArm  -27.9943 0.464634 54.7322
RightForeArm  70.2605 -5.06211 2.12475
RightHand  0.217841 -6.94347 -17.418
LeftUpLeg  -8.27417 2.30768 2.57355
LeftLeg  13.143 2.74184 2.33228
LeftFoot  -7.54533 0.113912 -2.07028
LeftToes  -7.12384e-010 -7.51861e-011 -8.34901e-011
9
root  -89.662 38.5017 101.961 179.018 87.751 176.486
RightUpLeg  -3.32495 -9.75089 -3.48272
RightLeg  14.8264 2.55096 1.02796
RightFoot  -9.2716 -0.199818 7.55798
RightToes  -3.4386e-010 1.2921e-014 -6.02303e-014
Spine  -9.87067 -0.319469 1.6818
Spine1  9.49973 0.623576 -4.6098
HEad  18.3098 -7.56998 1.31488
LeftShoulder1  1.05927 -0.812662 -19.4691
LeftArm  -2.61171 2.90874 -48.0665
LeftForeArm  33.9366 3.37477 -12.3754
LeftHand  -0.0388551 5.53453 2.03405
RightShoulder  1.11644 -0.0730594 28.4958
RightArm  -27.3366 0.232856 54.6453
RightForeArm  70.605 -5.11691 2.53093
RightHand  0.195348 -6.80822 -17.2434
LeftUpLeg  -6.065 2.63992 2.02992
LeftLeg  10.1845 3.824 2.2454
LeftFoot  -6.50603 0.110409 -1.68922
LeftToes  -7.12384e-010 -7.51861e-011 -8.34901e-011
10
root  -89.4825 38.6724 101.838 160.33 89.1195 158.33
RightUpLeg  -1.4747 -7.24176 -3.96374
RightLeg  12.317 0.565862 1.02612
RightFoot  -7.71478 -0.296409 7.69158
RightToes  -3.4386e-010 1.2921e-014 -6.02303e-014
Spine  -10.4669 0.16619 3.08643
Spine1  9.92843 1.33608 -5.2564
HEad  18.0139 -5.0784 0.598294
LeftShoulder1  1.02726 -0.63415 -19.8475
LeftArm  -2.58731 2.70048 -47.2847
LeftForeArm  33.9999 3.19906 -12.3648
LeftHand  -0.0372755 5.31846 1.85275
RightShoulder  1.10328 -0.118038 28.5695
RightArm  -26.9613 0.533525 54.9098
RightForeArm  71.1576 -5.12608 2.71514
RightHand  0.198264 -6.84016 -17.1159
LeftUpLeg  -3.35507 3.03321 1.75075
LeftLeg  6.91227 4.97347 1.95243
LeftFoot  -5.3961 0.114196 -1.57449
LeftToes  -7.12384e-010 -7.51861e-011 -8.34901e-011
11
root  -89.308 38.7321 101.722 59.6859 88.6698 57.9849
RightUpLeg  -0.82529 -7.25898 -5.31868
RightLeg  11.8623 1.81771 1.56912
RightFoot  -7.50649 -0.311538 7.76662
RightToes  -3.4386e-010 1.2921e-014 -6.02303e-014
Spine  -11.5346 0.36652 3.64539
Spine1  10.5544 1.6962 -5.7166
HEad  18.37 -1.86633 -0.0894829
LeftShoulder1  0.873619 0.0759463 -20.8885
LeftArm  -2.57604 2.75251 -46.3925
LeftForeArm  33.333 2.9989 -12.3496
LeftHand  -0.0298327 5.03112 2.17836
RightShoulder  1.28512 0.485023 27.8754
RightArm  -27.046 1.17448 55.6345
RightForeArm  71.9233 -5.07486 2.59064
RightHand  0.281758 -7.36406 -17.4913
LeftUpLeg  -1.42008 2.79597 0.638992
LeftLeg  4.62817 6.87085 1.88901
LeftFoot  -4.72387 0.0798958 -0.890391
LeftToes  -7.12384e-010 -7.51861e-011 -8.34901e-011
